<svg width="1200" height="720" viewBox="0 0 1200 720" fill="none" xmlns="http://www.w3.org/2000/svg">
  <rect width="1200" height="720" fill="#FFF8F3"/>
  <circle cx="190" cy="130" r="84" fill="#F8E5C8"/>
  <circle cx="1018" cy="124" r="72" fill="#DCEFFD"/>
  <rect x="120" y="506" width="960" height="130" rx="32" fill="#F0E6DA"/>
  <rect x="160" y="216" width="340" height="296" rx="54" fill="#DFF3EC"/>
  <circle cx="320" cy="178" r="72" fill="#F4CCAB"/>
  <path d="M254 176C254 142.863 280.863 116 314 116H332C365.137 116 392 142.863 392 176V198H254V176Z" fill="#34534A"/>
  <circle cx="302" cy="182" r="5.5" fill="#34534A"/>
  <circle cx="338" cy="182" r="5.5" fill="#34534A"/>
  <path d="M304 212C315.333 220 326.667 220 338 212" stroke="#9E6A61" stroke-width="4" stroke-linecap="round"/>
  <rect x="286" y="434" width="36" height="112" rx="18" fill="#F4CCAB"/>
  <rect x="374" y="434" width="36" height="112" rx="18" fill="#F4CCAB"/>
  <rect x="262" y="540" width="74" height="22" rx="11" fill="#6D8F84"/>
  <rect x="364" y="540" width="74" height="22" rx="11" fill="#6D8F84"/>
  <rect x="598" y="332" width="226" height="178" rx="42" fill="#F5B8A5"/>
  <circle cx="704" cy="270" r="60" fill="#F8D8BE"/>
  <path d="M652 268C652 239.281 675.281 216 704 216H716C744.719 216 768 239.281 768 268V286H652V268Z" fill="#6C534B"/>
  <circle cx="692" cy="270" r="5" fill="#6C534B"/>
  <circle cx="720" cy="270" r="5" fill="#6C534B"/>
  <path d="M690 294C699.333 301.333 708.667 301.333 718 294" stroke="#9F655C" stroke-width="4" stroke-linecap="round"/>
  <rect x="672" y="478" width="30" height="82" rx="15" fill="#F8D8BE"/>
  <rect x="726" y="478" width="30" height="82" rx="15" fill="#F8D8BE"/>
  <rect x="654" y="554" width="58" height="18" rx="9" fill="#8D6A59"/>
  <rect x="718" y="554" width="58" height="18" rx="9" fill="#8D6A59"/>
  <path d="M498 340C548 310 584 304 624 324" stroke="#F4CCAB" stroke-width="18" stroke-linecap="round"/>
  <rect x="846" y="196" width="222" height="168" rx="28" fill="#FFFDF9" stroke="#E4D8C9" stroke-width="6"/>
  <path d="M890 246C910 226 944 226 964 246" stroke="#E28A7C" stroke-width="12" stroke-linecap="round"/>
  <path d="M908 288H1004" stroke="#D8CEC3" stroke-width="12" stroke-linecap="round"/>
  <path d="M908 320H986" stroke="#D8CEC3" stroke-width="12" stroke-linecap="round"/>
  <circle cx="944" cy="246" r="34" fill="#FFF1C9"/>
  <path d="M944 232V240" stroke="#DEA53A" stroke-width="6" stroke-linecap="round"/>
  <path d="M944 252V260" stroke="#DEA53A" stroke-width="6" stroke-linecap="round"/>
  <path d="M930 246H938" stroke="#DEA53A" stroke-width="6" stroke-linecap="round"/>
  <path d="M950 246H958" stroke="#DEA53A" stroke-width="6" stroke-linecap="round"/>
  <path d="M858 430H1068" stroke="#D8C7B6" stroke-width="10" stroke-linecap="round"/>
</svg>
