<svg width="1200" height="720" viewBox="0 0 1200 720" fill="none" xmlns="http://www.w3.org/2000/svg">
  <rect width="1200" height="720" rx="36" fill="#F8F1E7"/>
  <circle cx="176" cy="122" r="82" fill="#DFF3EC"/>
  <circle cx="1030" cy="124" r="90" fill="#DCEFFD"/>
  <circle cx="1004" cy="584" r="126" fill="#F8D8A8"/>
  <rect x="146" y="166" width="336" height="372" rx="34" fill="#FFF9F3"/>
  <circle cx="314" cy="294" r="88" fill="#F1C27D"/>
  <path d="M240 278C255 230 297 202 346 202C379 202 408 216 426 239C401 236 374 248 352 248C310 248 275 228 240 278Z" fill="#5A433D"/>
  <circle cx="286" cy="300" r="6" fill="#5A433D"/>
  <circle cx="330" cy="300" r="6" fill="#5A433D"/>
  <path d="M286 338C298 326 318 326 330 338" stroke="#9A5A54" stroke-width="4" stroke-linecap="round"/>
  <rect x="250" y="394" width="128" height="106" rx="34" fill="#C97B66"/>
  <rect x="558" y="140" width="492" height="404" rx="36" fill="#FFF9F3"/>
  <rect x="606" y="194" width="170" height="118" rx="24" fill="#EDF7FF"/>
  <circle cx="690" cy="242" r="26" fill="#B8D7F2"/>
  <path d="M674 252C684 262 696 262 706 252" stroke="#40635A" stroke-width="4" stroke-linecap="round"/>
  <rect x="832" y="194" width="170" height="118" rx="24" fill="#FFF1F3"/>
  <circle cx="916" cy="242" r="26" fill="#F7D4B5"/>
  <path d="M902 254C910 242 922 242 930 254" stroke="#9A5A54" stroke-width="4" stroke-linecap="round"/>
  <rect x="606" y="338" width="170" height="118" rx="24" fill="#EFFAF5"/>
  <circle cx="690" cy="386" r="26" fill="#DFF3EC"/>
  <path d="M676 394C686 404 698 404 708 394" stroke="#40635A" stroke-width="4" stroke-linecap="round"/>
  <rect x="832" y="338" width="170" height="118" rx="24" fill="#FFF7E7"/>
  <circle cx="916" cy="386" r="26" fill="#F8D8A8"/>
  <path d="M902 396C912 386 920 386 930 396" stroke="#9A5A54" stroke-width="4" stroke-linecap="round"/>
  <path d="M470 332C522 318 556 320 594 336" stroke="#E9B86C" stroke-width="16" stroke-linecap="round" stroke-dasharray="1 24"/>
  <circle cx="530" cy="326" r="22" fill="#FFF9F3" stroke="#E9B86C" stroke-width="8"/>
  <path d="M520 326H540" stroke="#E9B86C" stroke-width="8" stroke-linecap="round"/>
  <path d="M560 580H950" stroke="#D8C7B6" stroke-width="14" stroke-linecap="round"/>
  <rect x="144" y="620" width="912" height="14" rx="7" fill="#D8C7B6"/>
</svg>
