<svg width="1200" height="720" viewBox="0 0 1200 720" fill="none" xmlns="http://www.w3.org/2000/svg">
  <rect width="1200" height="720" rx="40" fill="#F6EFE5"/>
  <circle cx="200" cy="132" r="78" fill="#DCEFFD" opacity="0.9"/>
  <circle cx="1016" cy="136" r="102" fill="#DFF3EC" opacity="0.92"/>
  <circle cx="1018" cy="584" r="120" fill="#F8E5C8" opacity="0.88"/>
  <rect x="156" y="476" width="888" height="198" rx="36" fill="#FFF9F2"/>
  <rect x="236" y="204" width="214" height="246" rx="30" fill="#FFFDF8" stroke="#E8D6C3" stroke-width="8"/>
  <path d="M278 276H408" stroke="#CAD9D3" stroke-width="10" stroke-linecap="round"/>
  <path d="M278 320H392" stroke="#CAD9D3" stroke-width="10" stroke-linecap="round"/>
  <path d="M278 364H362" stroke="#CAD9D3" stroke-width="10" stroke-linecap="round"/>
  <circle cx="760" cy="244" r="86" fill="#F8D8A8" opacity="0.72"/>
  <path d="M404 344C404 280.487 455.487 229 519 229H590V476H404V344Z" fill="#6A8F82"/>
  <circle cx="520" cy="202" r="60" fill="#F1C27D"/>
  <path d="M468 196C468 160.654 496.654 132 532 132C555.27 132 575.86 143.273 587 160.588C571.559 157.41 553.75 161.161 539.616 171.046C521.458 183.753 499.931 192.017 468 196Z" fill="#3E5A52"/>
  <rect x="636" y="344" width="186" height="132" rx="50" fill="#F3B2A0"/>
  <circle cx="718" cy="290" r="54" fill="#F7D4B5"/>
  <path d="M672 286C672 260.595 692.595 240 718 240H726C751.405 240 772 260.595 772 286V300H672V286Z" fill="#6A514A"/>
  <circle cx="706" cy="290" r="5" fill="#6A514A"/>
  <circle cx="732" cy="290" r="5" fill="#6A514A"/>
  <path d="M706 312C714.667 319.333 723.333 319.333 732 312" stroke="#9A5A54" stroke-width="4" stroke-linecap="round"/>
  <path d="M590 392C610 372 630 370 652 382" stroke="#F7D4B5" stroke-width="18" stroke-linecap="round"/>
  <rect x="458" y="476" width="42" height="112" rx="21" fill="#F1C27D"/>
  <rect x="544" y="476" width="42" height="112" rx="21" fill="#F1C27D"/>
  <rect x="438" y="584" width="74" height="24" rx="12" fill="#7A4D3A"/>
  <rect x="532" y="584" width="74" height="24" rx="12" fill="#7A4D3A"/>
  <rect x="676" y="476" width="38" height="112" rx="19" fill="#F7D4B5"/>
  <rect x="748" y="476" width="38" height="112" rx="19" fill="#F7D4B5"/>
  <rect x="662" y="584" width="64" height="22" rx="11" fill="#8B6A56"/>
  <rect x="738" y="584" width="64" height="22" rx="11" fill="#8B6A56"/>
  <path d="M872 258C889.719 246.927 910.287 247.713 926 261" stroke="#D77A6A" stroke-width="8" stroke-linecap="round"/>
  <path d="M925 261C944.174 247.817 966.475 249.63 983 265" stroke="#D77A6A" stroke-width="8" stroke-linecap="round"/>
  <path d="M344 618H876" stroke="#D8C7B6" stroke-width="10" stroke-linecap="round"/>
</svg>
