<svg width="1200" height="720" viewBox="0 0 1200 720" fill="none" xmlns="http://www.w3.org/2000/svg">
  <rect width="1200" height="720" fill="#FFF7F1"/>
  <circle cx="202" cy="136" r="86" fill="#F8E5C8"/>
  <circle cx="1018" cy="128" r="76" fill="#DCEFFD"/>
  <rect x="138" y="500" width="924" height="132" rx="32" fill="#F5ECE1"/>
  <rect x="176" y="214" width="322" height="300" rx="54" fill="#DFF3EC"/>
  <circle cx="326" cy="182" r="74" fill="#F3C9A5"/>
  <path d="M258 180C258 145.758 285.758 118 320 118H340C374.242 118 402 145.758 402 180V202H258V180Z" fill="#2F4A46"/>
  <circle cx="308" cy="184" r="6" fill="#2F4A46"/>
  <circle cx="342" cy="184" r="6" fill="#2F4A46"/>
  <path d="M306 214C316.667 222 327.333 222 338 214" stroke="#A56B63" stroke-width="4" stroke-linecap="round"/>
  <rect x="286" y="432" width="36" height="112" rx="18" fill="#F3C9A5"/>
  <rect x="372" y="432" width="36" height="112" rx="18" fill="#F3C9A5"/>
  <rect x="262" y="538" width="70" height="22" rx="11" fill="#6D8E83"/>
  <rect x="364" y="538" width="70" height="22" rx="11" fill="#6D8E83"/>
  <rect x="554" y="324" width="210" height="180" rx="42" fill="#F4B7C2"/>
  <circle cx="650" cy="264" r="62" fill="#F7D4B5"/>
  <path d="M596 264C596 234.176 620.176 210 650 210H662C691.824 210 716 234.176 716 264V282H596V264Z" fill="#6A5047"/>
  <circle cx="638" cy="264" r="5" fill="#6A5047"/>
  <circle cx="668" cy="264" r="5" fill="#6A5047"/>
  <path d="M638 286C647.333 293.333 656.667 293.333 666 286" stroke="#9A5A54" stroke-width="4" stroke-linecap="round"/>
  <rect x="616" y="474" width="30" height="80" rx="15" fill="#F7D4B5"/>
  <rect x="678" y="474" width="30" height="80" rx="15" fill="#F7D4B5"/>
  <rect x="598" y="548" width="56" height="18" rx="9" fill="#8B6A56"/>
  <rect x="670" y="548" width="56" height="18" rx="9" fill="#8B6A56"/>
  <circle cx="886" cy="262" r="82" fill="#FFFDF8" stroke="#E6DCCF" stroke-width="6"/>
  <path d="M854 264C866.667 248 887.333 248 900 264" stroke="#E2889C" stroke-width="14" stroke-linecap="round"/>
  <circle cx="870" cy="284" r="9" fill="#E2889C"/>
  <circle cx="904" cy="284" r="9" fill="#E2889C"/>
  <path d="M886 344V420" stroke="#E6DCCF" stroke-width="12" stroke-linecap="round"/>
  <path d="M846 382H926" stroke="#E6DCCF" stroke-width="12" stroke-linecap="round"/>
  <path d="M228 618H972" stroke="#D8C7B6" stroke-width="10" stroke-linecap="round"/>
</svg>
