<svg width="1200" height="720" viewBox="0 0 1200 720" fill="none" xmlns="http://www.w3.org/2000/svg">
  <rect width="1200" height="720" rx="40" fill="#F7EFE5"/>
  <circle cx="186" cy="130" r="80" fill="#DFF3EC" opacity="0.9"/>
  <circle cx="1034" cy="126" r="98" fill="#F8E5C8" opacity="0.9"/>
  <circle cx="1002" cy="590" r="126" fill="#DCEFFD" opacity="0.92"/>
  <rect x="134" y="160" width="932" height="420" rx="38" fill="#FFF9F3"/>
  <rect x="216" y="404" width="768" height="120" rx="28" fill="#E8D6C3"/>
  <circle cx="346" cy="294" r="82" fill="#F1C5A4"/>
  <path d="M278 288C290 244 326 214 370 214C398 214 424 226 440 246C416 244 394 252 374 252C338 252 308 238 278 288Z" fill="#7A4D3A"/>
  <circle cx="318" cy="298" r="5" fill="#7A4D3A"/>
  <circle cx="356" cy="298" r="5" fill="#7A4D3A"/>
  <path d="M318 332C330 342 344 342 356 332" stroke="#9A5A54" stroke-width="4.5" stroke-linecap="round"/>
  <rect x="278" y="374" width="132" height="120" rx="40" fill="#B8D7F2"/>
  <circle cx="838" cy="300" r="92" fill="#F7D4B5"/>
  <path d="M760 286C774 236 816 204 868 204C900 204 930 220 948 244C918 240 890 252 866 252C822 252 790 234 760 286Z" fill="#5A433D"/>
  <circle cx="804" cy="306" r="5.5" fill="#5A433D"/>
  <circle cx="846" cy="306" r="5.5" fill="#5A433D"/>
  <path d="M806 340C820 352 836 352 850 340" stroke="#9A5A54" stroke-width="4.5" stroke-linecap="round"/>
  <rect x="772" y="392" width="136" height="120" rx="42" fill="#C97B66"/>
  <path d="M520 438H692" stroke="#D8C7B6" stroke-width="16" stroke-linecap="round"/>
  <rect x="506" y="232" width="186" height="138" rx="28" fill="#FFFDF8" stroke="#E8D6C3" stroke-width="6"/>
  <path d="M546 276H648" stroke="#CAD9D3" stroke-width="10" stroke-linecap="round"/>
  <path d="M546 314H622" stroke="#CAD9D3" stroke-width="10" stroke-linecap="round"/>
  <circle cx="602" cy="448" r="84" fill="#DFF3EC"/>
  <path d="M562 420C562 394 584 372 610 372H618C664 372 702 410 702 456C702 502 664 540 618 540H590C566 540 546 520 546 496C546 474 560 456 580 450" stroke="#1F7A5A" stroke-width="18" stroke-linecap="round"/>
  <circle cx="640" cy="448" r="18" fill="#FFF9F3" stroke="#1F7A5A" stroke-width="8"/>
  <path d="M602 446H676" stroke="#1F7A5A" stroke-width="10" stroke-linecap="round"/>
  <path d="M640 410V486" stroke="#1F7A5A" stroke-width="10" stroke-linecap="round"/>
  <rect x="538" y="522" width="132" height="18" rx="9" fill="#D8C7B6"/>
  <rect x="182" y="618" width="836" height="12" rx="6" fill="#D8C7B6"/>
</svg>
