<svg width="1200" height="720" viewBox="0 0 1200 720" fill="none" xmlns="http://www.w3.org/2000/svg">
  <rect width="1200" height="720" rx="36" fill="#F7EFE5"/>
  <path d="M1034 168C1034 263.545 956.545 341 861 341C765.455 341 688 263.545 688 168C688 72.4552 765.455 -5 861 -5C956.545 -5 1034 72.4552 1034 168Z" fill="#E8F1EC"/>
  <path d="M345 776C492.459 776 612 656.459 612 509C612 361.541 492.459 242 345 242C197.541 242 78 361.541 78 509C78 656.459 197.541 776 345 776Z" fill="#F1DCC8"/>
  <rect x="287" y="157" width="628" height="404" rx="28" fill="#FFF9F3"/>
  <rect x="329" y="205" width="544" height="320" rx="22" fill="#FFF2E6"/>
  <path d="M468 332C468 284.608 506.608 246 554 246H652C699.392 246 738 284.608 738 332V430H468V332Z" fill="#D4E7DC"/>
  <circle cx="603" cy="214" r="70" fill="#F0C7A2"/>
  <path d="M553 193C564.179 154.189 594.697 131 634.342 131C669.337 131 700.773 149.568 715 179.584C692.008 169.213 669.807 181.254 650.366 181.254C622.211 181.254 593.234 164.526 553 193Z" fill="#39564E"/>
  <rect x="760" y="273" width="72" height="178" rx="36" fill="#C4D8CE"/>
  <circle cx="796" cy="239" r="46" fill="#F2C9A7"/>
  <path d="M766 222C771.986 196.481 793.758 178 820 178C836.749 178 851.837 185.533 862 197.388C842.515 198.958 827.145 211.145 809.487 211.145C797.161 211.145 784.971 207.555 766 222Z" fill="#40635A"/>
  <path d="M385 383C385 316.726 438.726 263 505 263H560V430H385V383Z" fill="#C97B66"/>
  <circle cx="492" cy="234" r="56" fill="#F1C5A4"/>
  <path d="M448 230C448 191.34 479.34 160 518 160C541.537 160 562.361 171.568 575 189.326C559.829 184.932 541.949 185.188 528.188 193.162C509.899 203.756 490.622 219 448 230Z" fill="#784B40"/>
  <rect x="470" y="440" width="238" height="25" rx="12.5" fill="#E2CBB5"/>
  <rect x="472" y="440" width="98" height="25" rx="12.5" fill="#6A8F82"/>
  <rect x="396" y="470" width="403" height="18" rx="9" fill="#E8D7C6"/>
  <rect x="396" y="505" width="284" height="18" rx="9" fill="#E8D7C6"/>
  <path d="M423 598C463.869 598 497 564.869 497 524H349C349 564.869 382.131 598 423 598Z" fill="#FFF9F3"/>
  <path d="M716 598C756.869 598 790 564.869 790 524H642C642 564.869 675.131 598 716 598Z" fill="#FFF9F3"/>
</svg>
