<svg width="1200" height="720" viewBox="0 0 1200 720" fill="none" xmlns="http://www.w3.org/2000/svg">
  <rect width="1200" height="720" fill="#FFF9F2"/>
  <circle cx="176" cy="126" r="82" fill="#F7DFE3"/>
  <circle cx="1034" cy="118" r="84" fill="#DFF3EC"/>
  <rect x="90" y="522" width="1020" height="124" rx="30" fill="#EAE4DA"/>
  <rect x="142" y="170" width="916" height="304" rx="42" fill="#FFFFFF" stroke="#E4DDD4" stroke-width="8"/>
  <rect x="206" y="224" width="300" height="196" rx="30" fill="#FFF1F3"/>
  <rect x="552" y="224" width="196" height="196" rx="30" fill="#FDE8D1"/>
  <rect x="786" y="224" width="208" height="196" rx="30" fill="#EDF7FF"/>
  <circle cx="356" cy="304" r="70" fill="#F6D5B4"/>
  <path d="M296 306C296 271.758 323.758 244 358 244C392.242 244 420 271.758 420 306V326H296V306Z" fill="#6A86A7"/>
  <circle cx="334" cy="308" r="6" fill="#465B72"/>
  <circle cx="378" cy="308" r="6" fill="#465B72"/>
  <path d="M332 338C346 329.333 360 329.333 374 338" stroke="#A76E67" stroke-width="5" stroke-linecap="round"/>
  <path d="M500 284L552 232" stroke="#D5898F" stroke-width="18" stroke-linecap="round"/>
  <path d="M500 232L552 284" stroke="#D5898F" stroke-width="18" stroke-linecap="round"/>
  <circle cx="650" cy="306" r="58" fill="#F3C68F"/>
  <path d="M600 308C600 279.281 623.281 256 652 256C680.719 256 704 279.281 704 308V326H600V308Z" fill="#7D5C43"/>
  <circle cx="630" cy="310" r="5" fill="#4E3727"/>
  <circle cx="666" cy="310" r="5" fill="#4E3727"/>
  <path d="M630 336C640 346 652 348 670 330" stroke="#8B3E51" stroke-width="5" stroke-linecap="round"/>
  <circle cx="890" cy="304" r="64" fill="#B8D7F2"/>
  <path d="M836 304C836 274.176 860.176 250 890 250C919.824 250 944 274.176 944 304V324H836V304Z" fill="#4F6F90"/>
  <circle cx="868" cy="306" r="5" fill="#364F67"/>
  <circle cx="906" cy="306" r="5" fill="#364F67"/>
  <path d="M870 332C882 340.667 894 340.667 906 332" stroke="#A96F67" stroke-width="4" stroke-linecap="round"/>
  <rect x="310" y="556" width="180" height="118" rx="36" fill="#DCEFFD"/>
  <path d="M352 590H446" stroke="#6B95B6" stroke-width="12" stroke-linecap="round"/>
  <path d="M352 626H426" stroke="#6B95B6" stroke-width="12" stroke-linecap="round"/>
  <circle cx="770" cy="564" r="86" fill="#F7D8BE"/>
  <path d="M692 566C692 523.026 726.026 489 769 489H771C813.974 489 848 523.026 848 566V596H692V566Z" fill="#574840"/>
  <circle cx="744" cy="568" r="6" fill="#3C2F2A"/>
  <circle cx="796" cy="568" r="6" fill="#3C2F2A"/>
  <path d="M744 602C758.667 612.667 773.333 612.667 788 602" stroke="#A56D64" stroke-width="5" stroke-linecap="round"/>
  <path d="M484 590C572 526 652 526 738 588" stroke="#E2B98F" stroke-width="18" stroke-linecap="round"/>
  <path d="M214 598H988" stroke="#D0C9C0" stroke-width="12" stroke-linecap="round"/>
  <path d="M292 632H918" stroke="#D0C9C0" stroke-width="12" stroke-linecap="round"/>
</svg>
