<svg width="1200" height="720" viewBox="0 0 1200 720" fill="none" xmlns="http://www.w3.org/2000/svg">
  <rect width="1200" height="720" fill="#F6EFE6"/>
  <rect x="68" y="68" width="1064" height="584" rx="40" fill="#FFF9F2"/>
  <circle cx="274" cy="252" r="116" fill="#D8E8DE"/>
  <circle cx="274" cy="224" r="46" fill="#E6B38A"/>
  <path d="M192 380C205 317 243 288 274 288C305 288 343 317 356 380V438H192V380Z" fill="#4F7A6B"/>
  <circle cx="594" cy="276" r="90" fill="#F6D8B9"/>
  <circle cx="594" cy="252" r="36" fill="#D79A71"/>
  <path d="M530 420C539 366 567 342 594 342C621 342 649 366 658 420V470H530V420Z" fill="#D6A34E"/>
  <rect x="458" y="470" width="272" height="78" rx="30" fill="#E9F1EC"/>
  <rect x="812" y="176" width="128" height="220" rx="22" fill="#1F3A36"/>
  <rect x="830" y="212" width="92" height="144" rx="12" fill="#FFF9F2"/>
  <path d="M772 252C799 269 811 294 812 322" stroke="#C97C5D" stroke-width="20" stroke-linecap="round"/>
  <path d="M760 220L806 190" stroke="#C97C5D" stroke-width="18" stroke-linecap="round"/>
  <circle cx="759" cy="220" r="18" fill="#E6B38A"/>
  <path d="M493 520C540 500 580 493 629 497C667 500 699 511 724 529" stroke="#1F3A36" stroke-width="10" stroke-linecap="round"/>
  <rect x="160" y="520" width="880" height="56" rx="28" fill="#EADBCB"/>
</svg>
