<svg width="1200" height="720" viewBox="0 0 1200 720" fill="none" xmlns="http://www.w3.org/2000/svg">
  <rect width="1200" height="720" rx="40" fill="#FCF5ED"/>
  <circle cx="209" cy="118" r="120" fill="#F6D7B8"/>
  <circle cx="981" cy="600" r="160" fill="#DCEFFD"/>
  <rect x="134" y="176" width="932" height="404" rx="32" fill="#FFFDF9" stroke="#EAD7C5" stroke-width="8"/>
  <rect x="182" y="224" width="836" height="308" rx="26" fill="#F8FBFF"/>
  <path d="M262 474C262 398.337 323.337 337 399 337H445C520.663 337 582 398.337 582 474V500H262V474Z" fill="#F4B07A"/>
  <circle cx="424" cy="288" r="74" fill="#F4B07A"/>
  <path d="M618 474C618 398.337 679.337 337 755 337H801C876.663 337 938 398.337 938 474V500H618V474Z" fill="#9CC8BE"/>
  <circle cx="780" cy="288" r="74" fill="#9CC8BE"/>
  <rect x="463" y="458" width="274" height="118" rx="22" fill="#FFF7EF" stroke="#E4C5A2" stroke-width="6"/>
  <circle cx="600" cy="420" r="54" fill="#F6C89A"/>
  <path d="M566 386C576 366 592 356 600 356C608 356 624 366 634 386" stroke="#8A4B2D" stroke-width="8" stroke-linecap="round"/>
  <path d="M581 431C590 440 610 440 619 431" stroke="#8A4B2D" stroke-width="8" stroke-linecap="round"/>
  <rect x="327" y="207" width="106" height="70" rx="20" fill="#FFF4E6" stroke="#E4C5A2" stroke-width="6"/>
  <path d="M353 242H408" stroke="#C66C3A" stroke-width="8" stroke-linecap="round"/>
  <rect x="770" y="207" width="110" height="70" rx="20" fill="#EFFAF5" stroke="#B7D9CE" stroke-width="6"/>
  <path d="M798 242H853" stroke="#2A6A5A" stroke-width="8" stroke-linecap="round"/>
  <path d="M522 520H677" stroke="#C8A27A" stroke-width="8" stroke-linecap="round"/>
  <path d="M522 548H641" stroke="#D8B491" stroke-width="8" stroke-linecap="round"/>
</svg>
