<svg width="1200" height="720" viewBox="0 0 1200 720" fill="none" xmlns="http://www.w3.org/2000/svg">
  <rect width="1200" height="720" rx="36" fill="#F7EFE5"/>
  <circle cx="184" cy="130" r="80" fill="#DCEFFD"/>
  <circle cx="1024" cy="140" r="94" fill="#DFF3EC"/>
  <circle cx="976" cy="584" r="122" fill="#F8D8A8"/>
  <rect x="176" y="124" width="406" height="310" rx="30" fill="#FFF9F3"/>
  <rect x="176" y="124" width="406" height="76" rx="30" fill="#1F3A36"/>
  <circle cx="230" cy="162" r="14" fill="#F8C89F"/>
  <circle cx="286" cy="162" r="14" fill="#F8C89F"/>
  <rect x="224" y="244" width="92" height="62" rx="16" fill="#EDF7FF"/>
  <rect x="334" y="244" width="92" height="62" rx="16" fill="#EDF7FF"/>
  <rect x="444" y="244" width="92" height="62" rx="16" fill="#EDF7FF"/>
  <rect x="224" y="326" width="92" height="62" rx="16" fill="#DFF3EC"/>
  <rect x="334" y="326" width="92" height="62" rx="16" fill="#FFF1F3"/>
  <rect x="444" y="326" width="92" height="62" rx="16" fill="#EDF7FF"/>
  <path d="M380 358L404 382L462 320" stroke="#C97B66" stroke-width="10" stroke-linecap="round" stroke-linejoin="round"/>
  <rect x="662" y="228" width="308" height="276" rx="30" fill="#FFF9F3"/>
  <circle cx="810" cy="318" r="72" fill="#F1C27D"/>
  <path d="M748 302C761 260 797 234 840 234C869 234 895 247 911 268C888 265 865 276 846 276C810 276 781 258 748 302Z" fill="#40635A"/>
  <circle cx="786" cy="324" r="5" fill="#40635A"/>
  <circle cx="822" cy="324" r="5" fill="#40635A"/>
  <path d="M786 352C798 362 812 362 824 352" stroke="#9A5A54" stroke-width="4" stroke-linecap="round"/>
  <rect x="744" y="394" width="132" height="96" rx="34" fill="#B8D7F2"/>
  <path d="M584 274C632 258 672 264 706 290" stroke="#E9B86C" stroke-width="16" stroke-linecap="round"/>
  <path d="M688 274L716 290L698 318" stroke="#E9B86C" stroke-width="16" stroke-linecap="round" stroke-linejoin="round"/>
  <path d="M706 430C662 454 620 459 576 442" stroke="#E9B86C" stroke-width="16" stroke-linecap="round"/>
  <path d="M592 408L564 442L602 456" stroke="#E9B86C" stroke-width="16" stroke-linecap="round" stroke-linejoin="round"/>
  <rect x="676" y="118" width="248" height="74" rx="24" fill="#FFFDF9"/>
  <path d="M718 155H882" stroke="#D8C7B6" stroke-width="14" stroke-linecap="round"/>
  <rect x="142" y="620" width="912" height="14" rx="7" fill="#D8C7B6"/>
</svg>
