<svg width="1200" height="720" viewBox="0 0 1200 720" fill="none" xmlns="http://www.w3.org/2000/svg">
  <rect width="1200" height="720" fill="#FFF9FA"/>
  <circle cx="184" cy="132" r="84" fill="#F8E5C8"/>
  <circle cx="1014" cy="136" r="94" fill="#DCEFFD"/>
  <rect x="94" y="538" width="1012" height="98" rx="30" fill="#EEE8E9"/>
  <circle cx="406" cy="250" r="70" fill="#F5D1AF"/>
  <path d="M344 250C344 216.863 370.863 190 404 190H424C457.137 190 484 216.863 484 250V268H344V250Z" fill="#4A3B36"/>
  <circle cx="390" cy="252" r="5" fill="#312723"/>
  <circle cx="426" cy="252" r="5" fill="#312723"/>
  <path d="M392 276C402 283 412 283 422 276" stroke="#A56D63" stroke-width="4" stroke-linecap="round"/>
  <rect x="324" y="314" width="176" height="206" rx="42" fill="#1F3A36"/>
  <rect x="358" y="504" width="34" height="84" rx="17" fill="#F5D1AF"/>
  <rect x="424" y="504" width="34" height="84" rx="17" fill="#F5D1AF"/>
  <circle cx="752" cy="282" r="58" fill="#F7D9BE"/>
  <path d="M700 282C700 254.386 722.386 232 750 232H766C793.614 232 816 254.386 816 282V298H700V282Z" fill="#6A86A7"/>
  <circle cx="736" cy="284" r="5" fill="#465A72"/>
  <circle cx="770" cy="284" r="5" fill="#465A72"/>
  <path d="M738 306C748 313 758 313 768 306" stroke="#A97267" stroke-width="4" stroke-linecap="round"/>
  <rect x="690" y="340" width="134" height="166" rx="38" fill="#B8D7F2"/>
  <rect x="716" y="492" width="30" height="78" rx="15" fill="#F7D9BE"/>
  <rect x="766" y="492" width="30" height="78" rx="15" fill="#F7D9BE"/>
  <path d="M506 390C554 432 618 432 672 390" stroke="#E7C7A3" stroke-width="18" stroke-linecap="round"/>
  <rect x="548" y="176" width="164" height="92" rx="28" fill="#FFFFFF" stroke="#F7DFE3" stroke-width="8"/>
  <path d="M588 220L616 248L674 190" stroke="#A65D71" stroke-width="12" stroke-linecap="round" stroke-linejoin="round"/>
  <path d="M834 206C890 186 938 198 974 242" stroke="#E29AAC" stroke-width="12" stroke-linecap="round"/>
  <path d="M850 252C892 244 924 258 952 288" stroke="#79A9CF" stroke-width="12" stroke-linecap="round"/>
  <rect x="844" y="346" width="146" height="72" rx="24" fill="#FFFFFF" stroke="#D8E3DB" stroke-width="8"/>
  <path d="M874 382H960" stroke="#5F8E7E" stroke-width="10" stroke-linecap="round"/>
  <path d="M268 590H514" stroke="#CFC5C8" stroke-width="12" stroke-linecap="round"/>
  <path d="M668 590H884" stroke="#CFC5C8" stroke-width="12" stroke-linecap="round"/>
</svg>
