<svg width="1200" height="720" viewBox="0 0 1200 720" fill="none" xmlns="http://www.w3.org/2000/svg">
  <rect width="1200" height="720" fill="#F8FBFF"/>
  <circle cx="190" cy="144" r="82" fill="#DFF3EC"/>
  <circle cx="1012" cy="132" r="88" fill="#F7DFE3"/>
  <rect x="104" y="518" width="992" height="116" rx="30" fill="#EAF4EC"/>
  <rect x="138" y="232" width="270" height="228" rx="40" fill="#DCEFFD"/>
  <path d="M180 232H366L430 316V420C430 442.091 412.091 460 390 460H180C157.909 460 140 442.091 140 420V272C140 249.909 157.909 232 180 232Z" fill="#B7D6F2"/>
  <path d="M366 232V286C366 302.569 379.431 316 396 316H430" fill="#9ABFDF"/>
  <rect x="794" y="232" width="270" height="228" rx="40" fill="#FFF1F3"/>
  <path d="M836 232H1022L1086 316V420C1086 442.091 1068.09 460 1046 460H836C813.909 460 796 442.091 796 420V272C796 249.909 813.909 232 836 232Z" fill="#F4C5CF"/>
  <path d="M1022 232V286C1022 302.569 1035.43 316 1052 316H1086" fill="#E7A9B6"/>
  <rect x="452" y="176" width="296" height="340" rx="44" fill="#1F3A36"/>
  <rect x="492" y="214" width="216" height="264" rx="28" fill="#F8F4EE"/>
  <circle cx="600" cy="160" r="62" fill="#F3C9A5"/>
  <path d="M548 156C548 126.177 572.177 102 602 102H612C641.823 102 666 126.177 666 156V178H548V156Z" fill="#43302E"/>
  <circle cx="582" cy="160" r="5" fill="#43302E"/>
  <circle cx="618" cy="160" r="5" fill="#43302E"/>
  <path d="M584 184C594.667 191.333 605.333 191.333 616 184" stroke="#A26863" stroke-width="4" stroke-linecap="round"/>
  <rect x="528" y="258" width="144" height="40" rx="20" fill="#DFF3EC"/>
  <rect x="528" y="324" width="144" height="40" rx="20" fill="#DCEFFD"/>
  <rect x="528" y="390" width="144" height="40" rx="20" fill="#F7DFE3"/>
  <path d="M556 278L572 294L604 262" stroke="#3B7A68" stroke-width="10" stroke-linecap="round" stroke-linejoin="round"/>
  <path d="M556 344L572 360L604 328" stroke="#4B78A8" stroke-width="10" stroke-linecap="round" stroke-linejoin="round"/>
  <path d="M556 410L572 426L604 394" stroke="#C96C83" stroke-width="10" stroke-linecap="round" stroke-linejoin="round"/>
  <path d="M324 346C366 320 410 320 452 346" stroke="#7AA9CE" stroke-width="16" stroke-linecap="round"/>
  <path d="M748 346C790 320 834 320 876 346" stroke="#E39AA9" stroke-width="16" stroke-linecap="round"/>
  <path d="M218 564H982" stroke="#C9DCCF" stroke-width="12" stroke-linecap="round"/>
</svg>
