<svg width="1200" height="720" viewBox="0 0 1200 720" fill="none" xmlns="http://www.w3.org/2000/svg">
  <rect width="1200" height="720" fill="#EFF6FB"/>
  <rect x="64" y="64" width="1072" height="592" rx="40" fill="#F8FBFF"/>
  <rect x="122" y="154" width="284" height="380" rx="34" fill="#DCEFFD"/>
  <rect x="458" y="154" width="284" height="380" rx="34" fill="#EAF4FF"/>
  <rect x="794" y="154" width="284" height="380" rx="34" fill="#DCEFFD"/>
  <circle cx="264" cy="246" r="42" fill="#D99B73"/>
  <path d="M198 390C208 332 239 302 264 302C289 302 320 332 330 390V432H198V390Z" fill="#305C88"/>
  <circle cx="600" cy="246" r="42" fill="#D99B73"/>
  <path d="M534 390C544 332 575 302 600 302C625 302 656 332 666 390V432H534V390Z" fill="#6F8E67"/>
  <circle cx="936" cy="246" r="42" fill="#D99B73"/>
  <path d="M870 390C880 332 911 302 936 302C961 302 992 332 1002 390V432H870V390Z" fill="#C88A47"/>
  <path d="M406 308H446" stroke="#2C557D" stroke-width="16" stroke-linecap="round"/>
  <path d="M742 308H782" stroke="#2C557D" stroke-width="16" stroke-linecap="round"/>
  <path d="M430 308L414 294" stroke="#2C557D" stroke-width="12" stroke-linecap="round"/>
  <path d="M430 308L414 322" stroke="#2C557D" stroke-width="12" stroke-linecap="round"/>
  <path d="M758 308L774 294" stroke="#2C557D" stroke-width="12" stroke-linecap="round"/>
  <path d="M758 308L774 322" stroke="#2C557D" stroke-width="12" stroke-linecap="round"/>
  <rect x="228" y="458" width="72" height="20" rx="10" fill="#305C88"/>
  <rect x="564" y="458" width="72" height="20" rx="10" fill="#6F8E67"/>
  <rect x="900" y="458" width="72" height="20" rx="10" fill="#C88A47"/>
  <rect x="180" y="574" width="840" height="34" rx="17" fill="#D6E4F0"/>
</svg>
