<svg width="1200" height="720" viewBox="0 0 1200 720" fill="none" xmlns="http://www.w3.org/2000/svg">
  <rect width="1200" height="720" fill="#FFF9F2"/>
  <circle cx="180" cy="126" r="78" fill="#DCEFFD"/>
  <circle cx="1022" cy="144" r="90" fill="#DFF3EC"/>
  <rect x="92" y="522" width="1016" height="122" rx="30" fill="#EAE8E1"/>
  <rect x="118" y="178" width="964" height="304" rx="44" fill="#FFFFFF" stroke="#E1DDD3" stroke-width="8"/>
  <rect x="174" y="228" width="190" height="154" rx="28" fill="#FDE9D3"/>
  <circle cx="270" cy="304" r="46" fill="#D79D54"/>
  <path d="M252 304H288" stroke="#FFFFFF" stroke-width="8" stroke-linecap="round"/>
  <path d="M270 286V322" stroke="#FFFFFF" stroke-width="8" stroke-linecap="round"/>
  <rect x="420" y="228" width="190" height="154" rx="28" fill="#DCEFFD"/>
  <circle cx="516" cy="304" r="46" fill="#6D9EC5"/>
  <path d="M496 316L512 332L538 286" stroke="#FFFFFF" stroke-width="8" stroke-linecap="round" stroke-linejoin="round"/>
  <rect x="666" y="228" width="190" height="154" rx="28" fill="#F7DFE3"/>
  <circle cx="762" cy="304" r="46" fill="#D98698"/>
  <path d="M742 304H782" stroke="#FFFFFF" stroke-width="8" stroke-linecap="round"/>
  <rect x="912" y="228" width="114" height="154" rx="28" fill="#DFF3EC"/>
  <path d="M948 258H990" stroke="#5E8F7E" stroke-width="10" stroke-linecap="round"/>
  <path d="M948 306H990" stroke="#5E8F7E" stroke-width="10" stroke-linecap="round"/>
  <path d="M948 354H982" stroke="#5E8F7E" stroke-width="10" stroke-linecap="round"/>
  <circle cx="458" cy="156" r="30" fill="#1F3A36"/>
  <path d="M444 156L454 166L474 146" stroke="#FFFFFF" stroke-width="6" stroke-linecap="round" stroke-linejoin="round"/>
  <circle cx="734" cy="156" r="30" fill="#1F3A36"/>
  <path d="M720 156L730 166L750 146" stroke="#FFFFFF" stroke-width="6" stroke-linecap="round" stroke-linejoin="round"/>
  <circle cx="432" cy="554" r="70" fill="#F7D8BE"/>
  <path d="M370 552C370 518.311 397.311 491 431 491H442C475.689 491 503 518.311 503 552V570H370V552Z" fill="#5A4A43"/>
  <circle cx="414" cy="556" r="5" fill="#3C2F2A"/>
  <circle cx="448" cy="556" r="5" fill="#3C2F2A"/>
  <path d="M414 580C423.667 588 433.333 588 443 580" stroke="#A56C63" stroke-width="4" stroke-linecap="round"/>
  <rect x="354" y="620" width="156" height="70" rx="30" fill="#B8D7F2"/>
  <circle cx="744" cy="542" r="60" fill="#F4D2B1"/>
  <path d="M692 542C692 513.281 715.281 490 744 490C772.719 490 796 513.281 796 542V558H692V542Z" fill="#6A86A7"/>
  <circle cx="724" cy="544" r="5" fill="#455A72"/>
  <circle cx="760" cy="544" r="5" fill="#455A72"/>
  <path d="M726 568C736 575.333 746 575.333 756 568" stroke="#A87167" stroke-width="4" stroke-linecap="round"/>
  <rect x="688" y="598" width="112" height="92" rx="30" fill="#F3B2A0"/>
  <path d="M514 552C566 520 614 520 668 552" stroke="#E4B88E" stroke-width="18" stroke-linecap="round"/>
  <path d="M212 574H988" stroke="#CFCBC2" stroke-width="12" stroke-linecap="round"/>
  <path d="M296 606H904" stroke="#CFCBC2" stroke-width="12" stroke-linecap="round"/>
</svg>
