<svg width="1200" height="720" viewBox="0 0 1200 720" fill="none" xmlns="http://www.w3.org/2000/svg">
  <rect width="1200" height="720" fill="#FFF8F2"/>
  <circle cx="206" cy="132" r="76" fill="#DCEFFD"/>
  <circle cx="1004" cy="138" r="82" fill="#DFF3EC"/>
  <rect x="92" y="520" width="1016" height="124" rx="30" fill="#EFE3D6"/>
  <rect x="146" y="224" width="278" height="176" rx="34" fill="#FFFFFF" stroke="#E6D5C3" stroke-width="8"/>
  <rect x="190" y="266" width="190" height="92" rx="24" fill="#DCEFFD"/>
  <path d="M224 312H344" stroke="#6586A7" stroke-width="14" stroke-linecap="round"/>
  <circle cx="286" cy="188" r="34" fill="#1F3A36"/>
  <path d="M264 188H308" stroke="#FFFFFF" stroke-width="8" stroke-linecap="round"/>
  <path d="M286 166V210" stroke="#FFFFFF" stroke-width="8" stroke-linecap="round"/>
  <rect x="776" y="224" width="278" height="176" rx="34" fill="#FFFFFF" stroke="#E6D5C3" stroke-width="8"/>
  <rect x="820" y="266" width="190" height="92" rx="24" fill="#F7DFE3"/>
  <path d="M854 312H974" stroke="#986274" stroke-width="14" stroke-linecap="round"/>
  <circle cx="914" cy="188" r="34" fill="#1F3A36"/>
  <path d="M892 188H936" stroke="#FFFFFF" stroke-width="8" stroke-linecap="round"/>
  <rect x="492" y="168" width="216" height="324" rx="42" fill="#1F3A36"/>
  <circle cx="600" cy="144" r="56" fill="#F2CAA7"/>
  <path d="M552 146C552 119.49 573.49 98 600 98C626.51 98 648 119.49 648 146V170H552V146Z" fill="#5C4B43"/>
  <circle cx="582" cy="146" r="5" fill="#3C2E28"/>
  <circle cx="618" cy="146" r="5" fill="#3C2E28"/>
  <path d="M584 170C594.667 178 605.333 178 616 170" stroke="#A46B63" stroke-width="4" stroke-linecap="round"/>
  <rect x="548" y="398" width="42" height="118" rx="21" fill="#F2CAA7"/>
  <rect x="610" y="398" width="42" height="118" rx="21" fill="#F2CAA7"/>
  <rect x="534" y="506" width="66" height="22" rx="11" fill="#8D705C"/>
  <rect x="600" y="506" width="66" height="22" rx="11" fill="#8D705C"/>
  <path d="M454 314H486" stroke="#D7C2AF" stroke-width="14" stroke-linecap="round"/>
  <path d="M714 314H746" stroke="#D7C2AF" stroke-width="14" stroke-linecap="round"/>
  <path d="M212 574H988" stroke="#D7CCBF" stroke-width="12" stroke-linecap="round"/>
  <path d="M294 606H906" stroke="#D7CCBF" stroke-width="12" stroke-linecap="round"/>
</svg>
