<svg width="1200" height="720" viewBox="0 0 1200 720" fill="none" xmlns="http://www.w3.org/2000/svg">
  <rect width="1200" height="720" fill="#F9FBF7"/>
  <circle cx="180" cy="128" r="78" fill="#F7DFE3"/>
  <circle cx="1018" cy="146" r="86" fill="#DCEFFD"/>
  <rect x="90" y="522" width="1020" height="122" rx="30" fill="#E6EEE5"/>
  <rect x="126" y="196" width="948" height="250" rx="42" fill="#FFFFFF" stroke="#D8E3DB" stroke-width="8"/>
  <rect x="188" y="248" width="206" height="146" rx="28" fill="#DFF3EC"/>
  <circle cx="290" cy="320" r="42" fill="#6BA28E"/>
  <path d="M276 320H304" stroke="#FFFFFF" stroke-width="8" stroke-linecap="round"/>
  <rect x="496" y="248" width="206" height="146" rx="28" fill="#FDEBD7"/>
  <circle cx="598" cy="320" r="42" fill="#D89D55"/>
  <path d="M580 320H616" stroke="#FFFFFF" stroke-width="8" stroke-linecap="round"/>
  <path d="M598 302V338" stroke="#FFFFFF" stroke-width="8" stroke-linecap="round"/>
  <rect x="804" y="248" width="206" height="146" rx="28" fill="#DCEFFD"/>
  <circle cx="906" cy="320" r="42" fill="#6FA0C6"/>
  <path d="M888 332C896.667 340 915.333 340 924 332" stroke="#FFFFFF" stroke-width="8" stroke-linecap="round"/>
  <circle cx="888" cy="308" r="5" fill="#FFFFFF"/>
  <circle cx="924" cy="308" r="5" fill="#FFFFFF"/>
  <rect x="354" y="120" width="156" height="54" rx="27" fill="#1F3A36"/>
  <path d="M388 147H476" stroke="#FFFFFF" stroke-width="10" stroke-linecap="round"/>
  <rect x="694" y="120" width="152" height="54" rx="27" fill="#1F3A36"/>
  <path d="M728 147H812" stroke="#FFFFFF" stroke-width="10" stroke-linecap="round"/>
  <circle cx="518" cy="147" r="27" fill="#F4B7C2"/>
  <circle cx="854" cy="147" r="27" fill="#DFF3EC"/>
  <path d="M212 574H988" stroke="#C9D5CB" stroke-width="12" stroke-linecap="round"/>
  <path d="M296 606H904" stroke="#C9D5CB" stroke-width="12" stroke-linecap="round"/>
</svg>
