<svg width="1200" height="720" viewBox="0 0 1200 720" fill="none" xmlns="http://www.w3.org/2000/svg">
  <rect width="1200" height="720" rx="40" fill="#F7EFE5"/>
  <circle cx="196" cy="136" r="84" fill="#DCEFFD" opacity="0.9"/>
  <circle cx="1028" cy="126" r="100" fill="#DFF3EC" opacity="0.86"/>
  <circle cx="1010" cy="590" r="122" fill="#F8E5C8" opacity="0.92"/>
  <rect x="112" y="150" width="410" height="442" rx="38" fill="#FFF9F3"/>
  <rect x="148" y="188" width="338" height="366" rx="28" fill="#EDF7FF"/>
  <circle cx="318" cy="342" r="96" fill="#F1C5A4"/>
  <path d="M236 324C248 268 294 228 348 228C384 228 417 246 436 274C404 270 378 284 352 284C311 284 275 266 236 324Z" fill="#5A433D"/>
  <circle cx="286" cy="350" r="6" fill="#5A433D"/>
  <circle cx="334" cy="350" r="6" fill="#5A433D"/>
  <path d="M284 390C300 374 322 372 350 390" stroke="#9A5A54" stroke-width="5" stroke-linecap="round"/>
  <rect x="236" y="430" width="166" height="96" rx="42" fill="#B8D7F2"/>
  <rect x="614" y="132" width="474" height="458" rx="42" fill="#FFF9F3"/>
  <rect x="660" y="188" width="382" height="170" rx="30" fill="#FFFDF8" stroke="#E8D6C3" stroke-width="6"/>
  <path d="M744 244C762 220 796 214 824 230C840 210 874 204 900 220C920 198 962 204 978 238C1012 240 1034 272 1026 304C1046 324 1046 358 1022 374C1014 404 986 424 954 420H762C716 420 684 378 696 334C670 316 666 274 690 248C704 232 724 226 744 244Z" fill="#E9EEF4"/>
  <path d="M748 340L790 294L836 340L878 288L924 340L972 280" stroke="#7A92A3" stroke-width="12" stroke-linecap="round" stroke-linejoin="round"/>
  <circle cx="862" cy="466" r="86" fill="#F7D4B5"/>
  <path d="M790 454C804 410 842 382 888 382C918 382 946 396 962 420C934 416 908 428 886 428C846 428 816 410 790 454Z" fill="#40635A"/>
  <circle cx="836" cy="468" r="6" fill="#40635A"/>
  <circle cx="880" cy="468" r="6" fill="#40635A"/>
  <path d="M838 502C854 514 872 514 888 502" stroke="#9A5A54" stroke-width="5" stroke-linecap="round"/>
  <rect x="778" y="554" width="168" height="18" rx="9" fill="#D8C7B6"/>
  <path d="M462 346C518 330 572 336 636 362" stroke="#E9B86C" stroke-width="16" stroke-linecap="round" stroke-dasharray="1 28"/>
  <circle cx="556" cy="344" r="22" fill="#FFF9F3" stroke="#E9B86C" stroke-width="7"/>
  <path d="M542 344H570" stroke="#E9B86C" stroke-width="7" stroke-linecap="round"/>
  <path d="M556 330V358" stroke="#E9B86C" stroke-width="7" stroke-linecap="round"/>
  <rect x="172" y="618" width="856" height="12" rx="6" fill="#D8C7B6"/>
</svg>
